<svg width="29" height="29" viewBox="0 0 29 29" fill="none" xmlns="http://www.w3.org/2000/svg">
<g id="shopping_bag">
<path id="Vector" d="M21.7526 7.25033H19.3359C19.3359 4.57991 17.173 2.41699 14.5026 2.41699C11.8322 2.41699 9.66927 4.57991 9.66927 7.25033H7.2526C5.92344 7.25033 4.83594 8.33783 4.83594 9.66699V24.167C4.83594 25.4962 5.92344 26.5837 7.2526 26.5837H21.7526C23.0818 26.5837 24.1693 25.4962 24.1693 24.167V9.66699C24.1693 8.33783 23.0818 7.25033 21.7526 7.25033ZM14.5026 4.83366C15.8318 4.83366 16.9193 5.92116 16.9193 7.25033H12.0859C12.0859 5.92116 13.1734 4.83366 14.5026 4.83366ZM21.7526 24.167H7.2526V9.66699H9.66927V12.0837C9.66927 12.7482 10.213 13.292 10.8776 13.292C11.5422 13.292 12.0859 12.7482 12.0859 12.0837V9.66699H16.9193V12.0837C16.9193 12.7482 17.463 13.292 18.1276 13.292C18.7922 13.292 19.3359 12.7482 19.3359 12.0837V9.66699H21.7526V24.167Z" fill="white"/>
</g>
</svg>
